# xmcd
#
# Track frame offsets:
#	150
#	40292
#	63186
#	82861
#	106309
#	169876
#	201570
#
# Disc length: 3066 seconds
#
# Revision: 1
# Processed by: cddbd v1.5.1PL0 Copyright (c) Steve Scherf et al.
# Submitted via: CDex 1.50Beta5
#
DISCID=580bf807
DTITLE=さだまさし - のちのおもひに 第一夜 [CD2]
DYEAR=1900
DGENRE=Folk
TTITLE0=トーク3
TTITLE1=晩鐘
TTITLE2=孤独
TTITLE3=不良少女白書
TTITLE4=トーク4
TTITLE5=東京物語
TTITLE6=東京
EXTD=
EXTT0=
EXTT1=
EXTT2=
EXTT3=
EXTT4=
EXTT5=
EXTT6=
PLAYORDER=
